<?xml version="1.0"?>
<svg version="1.1" xmlns="http://www.w3.org/2000/svg" width="400" height="200" style="border: dashed 2px #aaa"><path fill="#ffffff" d="M19.3125,128.78125l0-34.265625l7.265625,0l0,28.265625l13.8984375,0l0,6l-21.1640625,0z M69.463359375,128.78125l-19.734375,0l0-34.265625l19.734375,0l0,5.953125l-12.46875,0l0,7.5234375l11.6015625,0l0,5.953125l-11.6015625,0l0,8.8359375l12.46875,0l0,6z M100.88765625,128.78125l-2.484375-8.15625l-12.4921875,0l-2.484375,8.15625l-7.828125,0l12.09375-34.40625l8.8828125,0l12.140625,34.40625l-7.828125,0z M96.66890625,114.53125q-3.4453125-11.0859375-3.87890625-12.5390625t-0.62109375-2.296875q-0.7734375,3-4.4296875,14.8359375l8.9296875,0z M123.593203125,109.7265625l2.34375,0q3.4453125,0,5.0859375-1.1484375t1.640625-3.609375q0-2.4375-1.67578125-3.46875t-5.19140625-1.03125l-2.203125,0l0,9.2578125z M123.593203125,115.6328125l0,13.1484375l-7.265625,0l0-34.265625l9.984375,0q6.984375,0,10.3359375,2.54296875t3.3515625,7.72265625q0,3.0234375-1.6640625,5.37890625t-4.7109375,3.69140625q7.734375,11.5546875,10.078125,14.9296875l-8.0625,0l-8.1796875-13.1484375l-3.8671875,0z M181.7128125,128.78125l-9.234375,0l-14.90625-25.921875l-0.2109375,0q0.4453125,6.8671875,0.4453125,9.796875l0,16.125l-6.4921875,0l0-34.265625l9.1640625,0l14.8828125,25.6640625l0.1640625,0q-0.3515625-6.6796875-0.3515625-9.4453125l0-16.21875l6.5390625,0l0,34.265625z M213.371484375,128.78125l-19.734375,0l0-34.265625l19.734375,0l0,5.953125l-12.46875,0l0,7.5234375l11.6015625,0l0,5.953125l-11.6015625,0l0,8.8359375l12.46875,0l0,6z M231.08484375,109.7265625l2.34375,0q3.4453125,0,5.0859375-1.1484375t1.640625-3.609375q0-2.4375-1.67578125-3.46875t-5.19140625-1.03125l-2.203125,0l0,9.2578125z M231.08484375,115.6328125l0,13.1484375l-7.265625,0l0-34.265625l9.984375,0q6.984375,0,10.3359375,2.54296875t3.3515625,7.72265625q0,3.0234375-1.6640625,5.37890625t-4.7109375,3.69140625q7.734375,11.5546875,10.078125,14.9296875l-8.0625,0l-8.1796875-13.1484375l-3.8671875,0z M279.782578125,128.78125l-2.484375-8.15625l-12.4921875,0l-2.484375,8.15625l-7.828125,0l12.09375-34.40625l8.8828125,0l12.140625,34.40625l-7.828125,0z M275.563828125,114.53125q-3.4453125-11.0859375-3.87890625-12.5390625t-0.62109375-2.296875q-0.7734375,3-4.4296875,14.8359375l8.9296875,0z"/><path fill="#" d=""/></svg>
